<svg width="312" height="60" viewBox="0 0 312 60" fill="none" xmlns="http://www.w3.org/2000/svg">
<rect x="1.4458" y="3.14737" width="43" height="43" rx="6.5" fill="#6363DB"/>
<rect x="1.4458" y="3.14737" width="43" height="43" rx="6.5" stroke="#4F4FB9"/>
<path d="M26.4858 32.1474L25.4458 28.7474H20.2458L19.2058 32.1474H15.9458L20.9858 17.8074H24.6858L29.7458 32.1474H26.4858ZM23.6858 22.8874C23.6191 22.6607 23.5325 22.374 23.4258 22.0274C23.3191 21.6807 23.2125 21.3274 23.1058 20.9674C22.9991 20.6074 22.9125 20.294 22.8458 20.0274C22.7791 20.294 22.6858 20.6274 22.5658 21.0274C22.4591 21.414 22.3525 21.7874 22.2458 22.1474C22.1525 22.494 22.0791 22.7407 22.0258 22.8874L21.0058 26.2074H24.7258L23.6858 22.8874Z" fill="white"/>
<rect x="37.8279" y="15.4891" width="43" height="43" rx="6.5" transform="rotate(-1.83156 37.8279 15.4891)" fill="#FFCF62"/>
<rect x="37.8279" y="15.4891" width="43" height="43" rx="6.5" transform="rotate(-1.83156 37.8279 15.4891)" stroke="#691B0A"/>
<path d="M65.8481 36.3242C65.8993 37.9234 65.6489 39.2721 65.0971 40.3703C64.5585 41.4681 63.7583 42.3074 62.6963 42.8883C61.6477 43.4688 60.377 43.7829 58.8845 43.8306L54.8266 43.9604L54.3701 29.6877L58.7879 29.5464C60.2138 29.5008 61.4417 29.7283 62.4716 30.229C63.5148 30.7293 64.3262 31.4904 64.9058 32.5124C65.485 33.5211 65.7991 34.7917 65.8481 36.3242ZM62.4924 36.5116C62.4587 35.4588 62.3044 34.5966 62.0295 33.925C61.7546 33.2535 61.3588 32.7659 60.8421 32.4622C60.3384 32.1448 59.7134 31.9981 58.9671 32.0219L57.6878 32.0629L57.985 41.3581L58.9845 41.3261C60.2372 41.2861 61.1441 40.8635 61.7054 40.0585C62.2799 39.2531 62.5423 38.0708 62.4924 36.5116Z" fill="black"/>
<rect x="115.865" y="4.21532" width="43" height="43" rx="6.5" transform="rotate(3.38389 115.865 4.21532)" fill="#E1F5EC"/>
<rect x="115.865" y="4.21532" width="43" height="43" rx="6.5" transform="rotate(3.38389 115.865 4.21532)" stroke="#03AB4F"/>
<path d="M142.588 20.5411L137.253 34.5306L133.58 34.3134L129.97 19.795L133.424 19.9993L135.119 28.6143C135.15 28.7631 135.201 29.0399 135.27 29.4447C135.34 29.8362 135.409 30.2543 135.476 30.6991C135.544 31.1305 135.583 31.4934 135.592 31.7878C135.65 31.4973 135.731 31.1415 135.836 30.7203C135.954 30.2999 136.065 29.899 136.167 29.5178C136.284 29.124 136.367 28.8484 136.417 28.691L139.114 20.3357L142.588 20.5411Z" fill="#03AB4F"/>
<rect x="148.859" y="6.09186" width="43" height="43" rx="6.5" transform="rotate(-7.39126 148.859 6.09186)" fill="#6363DB"/>
<rect x="148.859" y="6.09186" width="43" height="43" rx="6.5" transform="rotate(-7.39126 148.859 6.09186)" stroke="#4F4FB9"/>
<path d="M177.025 31.6811L170.579 32.5173L170.357 30.8116L171.98 29.7944L170.791 20.6312L168.963 20.0616L168.741 18.3559L175.187 17.5197L175.409 19.2255L173.786 20.2427L174.975 29.4059L176.803 29.9754L177.025 31.6811Z" fill="white"/>
<rect x="187.766" y="12.9725" width="43" height="43" rx="6.5" transform="rotate(-7.61712 187.766 12.9725)" fill="#FFCF62"/>
<rect x="187.766" y="12.9725" width="43" height="43" rx="6.5" transform="rotate(-7.61712 187.766 12.9725)" stroke="#691B0A"/>
<path d="M218.828 38.0767L215.022 38.5857L207.425 28.7054L207.346 28.716C207.403 29.0447 207.462 29.3799 207.521 29.7217C207.578 30.0504 207.636 30.3856 207.696 30.7274C207.766 31.0543 207.831 31.3886 207.89 31.7305C207.948 32.0591 208.006 32.3943 208.065 32.7362L208.956 39.3969L206.28 39.7548L204.387 25.6008L208.173 25.0944L215.737 34.8782L215.796 34.8702C215.739 34.5416 215.682 34.2196 215.627 33.9042C215.569 33.5756 215.513 33.2535 215.457 32.9381C215.413 32.6077 215.363 32.2848 215.307 31.9694C215.25 31.6408 215.193 31.3122 215.135 30.9836L214.239 24.2832L216.935 23.9227L218.828 38.0767Z" fill="black"/>
<rect x="267.6" y="13.1873" width="43" height="43" rx="6.5" transform="rotate(3.38389 267.6 13.1873)" fill="#E1F5EC"/>
<rect x="267.6" y="13.1873" width="43" height="43" rx="6.5" transform="rotate(3.38389 267.6 13.1873)" stroke="#03AB4F"/>
<path d="M291.364 43.6431L283.159 43.1579L284.001 28.9028L292.207 29.3879L292.061 31.8636L286.87 31.5567L286.684 34.6912L291.516 34.9769L291.37 37.4526L286.538 37.1669L286.321 40.8405L291.512 41.1474L291.364 43.6431Z" fill="#03AB4F"/>
<rect x="78.6239" y="1.17046" width="43" height="43" rx="6.5" transform="rotate(5.54507 78.6239 1.17046)" fill="#6363DB"/>
<rect x="78.6239" y="1.17046" width="43" height="43" rx="6.5" transform="rotate(5.54507 78.6239 1.17046)" stroke="#4F4FB9"/>
<path d="M100.346 32.4157L93.8768 31.7876L94.043 30.0757L95.8522 29.4475L96.7451 20.2508L95.0905 19.2864L95.2567 17.5744L101.726 18.2025L101.56 19.9145L99.7509 20.5426L98.8581 29.7394L100.513 30.7037L100.346 32.4157Z" fill="white"/>
<rect x="228.777" y="1.04531" width="43" height="43" rx="6.5" transform="rotate(5.91764 228.777 1.04531)" fill="#6363DB"/>
<rect x="228.777" y="1.04531" width="43" height="43" rx="6.5" transform="rotate(5.91764 228.777 1.04531)" stroke="#4F4FB9"/>
<path d="M252.643 32.6745L249.639 32.3631L250.275 26.2359L244.645 25.6524L244.01 31.7796L241.006 31.4682L242.478 17.2643L245.482 17.5757L244.905 23.1458L250.534 23.7294L251.112 18.1592L254.116 18.4706L252.643 32.6745Z" fill="white"/>
</svg>
